<mxfile host="app.diagrams.net" modified="2023-07-14T12:36:04.252Z" agent="Mozilla/5.0 (Windows NT 10.0; Win64; x64) AppleWebKit/537.36 (KHTML, like Gecko) Chrome/112.0.0.0 YaBrowser/23.5.4.674 Yowser/2.5 Safari/537.36" etag="8W7RKwXOc4SNiKhlLdAy" version="21.3.6" type="device">
  <diagram name="Страница 1" id="IuuiOP5aMacpqn3fk5C_">
    <mxGraphModel dx="1311" dy="719" grid="1" gridSize="10" guides="1" tooltips="1" connect="1" arrows="1" fold="1" page="1" pageScale="1" pageWidth="827" pageHeight="1169" math="0" shadow="0">
      <root>
        <mxCell id="0" />
        <mxCell id="1" parent="0" />
        <mxCell id="ltPpxdAKRipLzabjDy0b-2" value="" style="endArrow=classic;html=1;rounded=0;entryX=0;entryY=0.5;entryDx=0;entryDy=0;" edge="1" parent="1" source="ltPpxdAKRipLzabjDy0b-3" target="ltPpxdAKRipLzabjDy0b-4">
          <mxGeometry width="50" height="50" relative="1" as="geometry">
            <mxPoint x="590" y="510" as="sourcePoint" />
            <mxPoint x="420" y="400" as="targetPoint" />
          </mxGeometry>
        </mxCell>
        <mxCell id="ltPpxdAKRipLzabjDy0b-3" value="&lt;font style=&quot;font-size: 20px;&quot;&gt;Администратор&lt;br&gt;второго уровня&lt;/font&gt;" style="shape=umlActor;verticalLabelPosition=bottom;verticalAlign=top;html=1;outlineConnect=0;" vertex="1" parent="1">
          <mxGeometry x="130" y="470" width="60" height="120" as="geometry" />
        </mxCell>
        <mxCell id="ltPpxdAKRipLzabjDy0b-4" value="&lt;font style=&quot;font-size: 14px;&quot;&gt;Сменить пароль&lt;/font&gt;" style="ellipse;whiteSpace=wrap;html=1;" vertex="1" parent="1">
          <mxGeometry x="370" y="320" width="140" height="40" as="geometry" />
        </mxCell>
        <mxCell id="ltPpxdAKRipLzabjDy0b-5" value="" style="endArrow=classic;html=1;rounded=0;entryX=0;entryY=0.5;entryDx=0;entryDy=0;" edge="1" parent="1" target="ltPpxdAKRipLzabjDy0b-6" source="ltPpxdAKRipLzabjDy0b-3">
          <mxGeometry width="50" height="50" relative="1" as="geometry">
            <mxPoint x="186" y="501" as="sourcePoint" />
            <mxPoint x="475" y="480" as="targetPoint" />
          </mxGeometry>
        </mxCell>
        <mxCell id="ltPpxdAKRipLzabjDy0b-6" value="&lt;span style=&quot;font-size: 14px;&quot;&gt;Начать игру&lt;br&gt;&lt;/span&gt;" style="ellipse;whiteSpace=wrap;html=1;" vertex="1" parent="1">
          <mxGeometry x="410" y="360" width="130" height="40" as="geometry" />
        </mxCell>
        <mxCell id="ltPpxdAKRipLzabjDy0b-7" value="" style="endArrow=classic;html=1;rounded=0;entryX=0;entryY=0.5;entryDx=0;entryDy=0;" edge="1" parent="1" target="ltPpxdAKRipLzabjDy0b-8">
          <mxGeometry width="50" height="50" relative="1" as="geometry">
            <mxPoint x="192" y="515" as="sourcePoint" />
            <mxPoint x="475" y="550" as="targetPoint" />
          </mxGeometry>
        </mxCell>
        <mxCell id="ltPpxdAKRipLzabjDy0b-8" value="&lt;font style=&quot;font-size: 14px;&quot;&gt;Выключить звуки&lt;br&gt;игры&lt;br&gt;&lt;/font&gt;" style="ellipse;whiteSpace=wrap;html=1;" vertex="1" parent="1">
          <mxGeometry x="480" y="400" width="150" height="60" as="geometry" />
        </mxCell>
        <mxCell id="ltPpxdAKRipLzabjDy0b-9" value="" style="endArrow=classic;html=1;rounded=0;entryX=0;entryY=0.5;entryDx=0;entryDy=0;" edge="1" parent="1" target="ltPpxdAKRipLzabjDy0b-10" source="ltPpxdAKRipLzabjDy0b-3">
          <mxGeometry width="50" height="50" relative="1" as="geometry">
            <mxPoint x="225" y="692" as="sourcePoint" />
            <mxPoint x="470" y="610" as="targetPoint" />
          </mxGeometry>
        </mxCell>
        <mxCell id="ltPpxdAKRipLzabjDy0b-10" value="&lt;font style=&quot;font-size: 14px;&quot;&gt;Посмотреть таблицу лидеров&lt;/font&gt;" style="ellipse;whiteSpace=wrap;html=1;" vertex="1" parent="1">
          <mxGeometry x="520" y="460" width="150" height="60" as="geometry" />
        </mxCell>
        <mxCell id="ltPpxdAKRipLzabjDy0b-11" value="" style="endArrow=classic;html=1;rounded=0;entryX=0;entryY=0.5;entryDx=0;entryDy=0;" edge="1" parent="1" target="ltPpxdAKRipLzabjDy0b-12" source="ltPpxdAKRipLzabjDy0b-3">
          <mxGeometry width="50" height="50" relative="1" as="geometry">
            <mxPoint x="220" y="762" as="sourcePoint" />
            <mxPoint x="465" y="680" as="targetPoint" />
          </mxGeometry>
        </mxCell>
        <mxCell id="ltPpxdAKRipLzabjDy0b-12" value="&lt;font style=&quot;font-size: 14px;&quot;&gt;Выйти из аккаунта&lt;/font&gt;" style="ellipse;whiteSpace=wrap;html=1;" vertex="1" parent="1">
          <mxGeometry x="555" y="520" width="150" height="40" as="geometry" />
        </mxCell>
        <mxCell id="ltPpxdAKRipLzabjDy0b-13" value="" style="endArrow=classic;html=1;rounded=0;entryX=0;entryY=0.5;entryDx=0;entryDy=0;" edge="1" parent="1" target="ltPpxdAKRipLzabjDy0b-14" source="ltPpxdAKRipLzabjDy0b-3">
          <mxGeometry width="50" height="50" relative="1" as="geometry">
            <mxPoint x="200" y="792" as="sourcePoint" />
            <mxPoint x="445" y="710" as="targetPoint" />
          </mxGeometry>
        </mxCell>
        <mxCell id="ltPpxdAKRipLzabjDy0b-14" value="&lt;font style=&quot;font-size: 14px;&quot;&gt;Сменить внешний&amp;nbsp;&lt;br&gt;вид персонажа&lt;br&gt;&lt;/font&gt;" style="ellipse;whiteSpace=wrap;html=1;" vertex="1" parent="1">
          <mxGeometry x="460" y="555" width="150" height="60" as="geometry" />
        </mxCell>
        <mxCell id="ltPpxdAKRipLzabjDy0b-15" value="" style="endArrow=classic;html=1;rounded=0;entryX=0;entryY=0.5;entryDx=0;entryDy=0;" edge="1" parent="1" target="ltPpxdAKRipLzabjDy0b-16" source="ltPpxdAKRipLzabjDy0b-3">
          <mxGeometry width="50" height="50" relative="1" as="geometry">
            <mxPoint x="170" y="862" as="sourcePoint" />
            <mxPoint x="415" y="780" as="targetPoint" />
          </mxGeometry>
        </mxCell>
        <mxCell id="ltPpxdAKRipLzabjDy0b-16" value="&lt;font style=&quot;font-size: 14px;&quot;&gt;Удалить пользователя&lt;br&gt;&lt;/font&gt;" style="ellipse;whiteSpace=wrap;html=1;" vertex="1" parent="1">
          <mxGeometry x="395" y="615" width="160" height="60" as="geometry" />
        </mxCell>
        <mxCell id="ltPpxdAKRipLzabjDy0b-18" value="" style="endArrow=classic;html=1;rounded=0;entryX=0;entryY=0.5;entryDx=0;entryDy=0;" edge="1" parent="1" target="ltPpxdAKRipLzabjDy0b-19">
          <mxGeometry width="50" height="50" relative="1" as="geometry">
            <mxPoint x="180" y="555.7333333333333" as="sourcePoint" />
            <mxPoint x="395" y="843" as="targetPoint" />
          </mxGeometry>
        </mxCell>
        <mxCell id="ltPpxdAKRipLzabjDy0b-19" value="&lt;font style=&quot;font-size: 14px;&quot;&gt;Удалить &lt;br&gt;администратора&lt;br&gt;&lt;/font&gt;" style="ellipse;whiteSpace=wrap;html=1;" vertex="1" parent="1">
          <mxGeometry x="320" y="675" width="160" height="60" as="geometry" />
        </mxCell>
        <mxCell id="ltPpxdAKRipLzabjDy0b-20" value="" style="endArrow=classic;html=1;rounded=0;entryX=0;entryY=0.5;entryDx=0;entryDy=0;" edge="1" parent="1" target="ltPpxdAKRipLzabjDy0b-21" source="ltPpxdAKRipLzabjDy0b-3">
          <mxGeometry width="50" height="50" relative="1" as="geometry">
            <mxPoint x="210" y="140.73333333333335" as="sourcePoint" />
            <mxPoint x="425" y="428" as="targetPoint" />
          </mxGeometry>
        </mxCell>
        <mxCell id="ltPpxdAKRipLzabjDy0b-21" value="&lt;font style=&quot;font-size: 14px;&quot;&gt;Добавить&lt;br&gt;администратора&lt;br&gt;&lt;/font&gt;" style="ellipse;whiteSpace=wrap;html=1;" vertex="1" parent="1">
          <mxGeometry x="320" y="260" width="160" height="60" as="geometry" />
        </mxCell>
      </root>
    </mxGraphModel>
  </diagram>
</mxfile>
